<svg width="56" height="56" viewBox="0 0 56 56" fill="none" xmlns="http://www.w3.org/2000/svg">
<path d="M28.8409 53.8136C28.8409 53.8136 32.3193 54.8071 34.7617 53.8136C37.2041 52.8201 30.1663 40.6347 30.1663 40.6347L19.3171 41.9613L23.1255 49.2546L28.8409 53.8136Z" fill="#493254"/>
<path d="M10.0942 45.9903C9.61672 47.0099 7.96721 47.8267 6.87044 47.7079C5.38588 47.5457 5.001 45.6254 6.22221 45.1359C7.82252 44.4958 8.69936 47.0215 7.06143 48.0352C5.001 49.3068 3.77979 47.9309 3.77979 47.2677" stroke="#9264A8" stroke-width="0.84" stroke-linecap="round"/>
<path d="M52.7989 5.17058C52.6889 5.08368 52.5645 5.02286 52.4372 4.96783C52.2549 4.89252 52.0725 4.82011 51.8931 4.7448C51.2623 4.48122 50.8253 4.02358 50.5533 3.39795C50.3131 2.83893 50.1771 2.25385 50.0671 1.66008C49.9803 1.20244 49.9195 0.741903 49.8645 0.281367C49.8414 0.0902016 49.7112 -0.0198636 49.5259 0.00620447C49.5173 0.00910092 49.4854 0.0235832 49.4565 0.0380654C49.3205 0.110477 49.3089 0.232128 49.3234 0.371157C49.4131 1.28933 49.5144 2.2104 49.4247 3.14017C49.3755 3.63256 49.2655 4.11048 48.9848 4.53336C48.7562 4.88093 48.435 5.12713 48.0993 5.36174C47.9256 5.4805 47.7491 5.59636 47.6102 5.75856C47.4192 5.98738 47.4626 6.16985 47.7375 6.28571C47.9575 6.3784 48.1861 6.41895 48.4205 6.41895C48.8632 6.41605 49.2742 6.49136 49.6301 6.77811C49.8819 6.98376 50.1018 7.20968 50.2812 7.47905C50.3218 7.53698 50.3652 7.58622 50.4462 7.57463C50.5156 7.56305 50.5446 7.50801 50.5677 7.44719C50.643 7.24733 50.7414 7.05327 50.8571 6.87369C51.1089 6.49136 51.4099 6.17854 51.8729 6.05979C52.0031 6.02503 52.1304 5.99027 52.2578 5.94683C52.4487 5.88311 52.634 5.8049 52.7931 5.67746C53.0015 5.50946 53.0015 5.33568 52.7931 5.17058H52.7989Z" fill="#F2BB4F"/>
<path d="M22.6596 45.0345C22.703 45.0287 29.3733 44.2466 31.7116 46.28C32.8923 47.3082 33.2077 49.9585 32.9183 53.8831C32.8749 54.4769 33.2743 55.0157 33.8588 55.1286C35.4302 55.4356 38.5266 55.8498 41.1948 55.0157C41.6028 54.8882 41.9067 54.5493 41.9935 54.1322C42.4623 51.8585 43.3449 43.9512 35.8903 34.6101C35.8903 34.6101 34.8717 32.0236 37.0623 29.7528C42.5578 24.0584 52.1539 26.0511 52.3015 8.58842C52.3015 8.37698 52.1105 8.21188 51.9021 8.24664L49.0806 8.73325C48.9156 8.76221 48.7941 8.90703 48.7999 9.07792C48.8491 10.6912 48.8115 18.4248 43.6777 18.4566C41.5565 18.4711 40.9257 16.2437 40.4019 13.6572C38.9405 6.41608 32.3106 1.3444 24.9573 1.96713C23.0994 2.12354 21.0448 2.58697 18.7818 3.45881C18.7818 3.45881 15.5551 4.81724 13.0693 8.5247C12.4963 9.37626 11.359 9.59929 10.4272 9.80204C9.36802 10.0309 8.43619 10.2626 7.49279 10.8303C2.6745 13.7325 1.80634 20.322 4.74072 24.8781C7.79665 29.6225 13.6336 31.0649 18.9641 30.894C20.5441 30.8419 22.3875 30.8187 23.9097 30.3582C23.8981 30.364 19.7541 32.6261 13.3095 32.0352C13.3095 32.0352 11.9985 35.1721 10.0915 42.2307C9.35066 44.9766 9.1886 48.041 10.4301 50.671C11.0233 51.928 11.903 52.9621 12.9593 53.776C14.195 54.7289 15.6738 55.3082 17.2104 55.5689C20.356 56.1076 24.0226 56.2003 27.9756 55.4878C29.0463 55.2937 29.8566 54.4161 29.9579 53.3328C30.1315 51.4762 30.2357 48.6435 29.4862 47.1692C28.3171 44.8694 22.6972 45.0287 22.6596 45.0316V45.0345Z" fill="#6E4B7E"/>
<path d="M30.5654 16.4957C30.2499 15.4559 30.1081 13.8049 32.6316 14.2886C32.8371 14.3291 32.8515 14.6188 32.649 14.6767C31.9892 14.865 31.2049 15.3342 30.9532 16.4725C30.9069 16.6753 30.6233 16.6955 30.5654 16.4928V16.4957Z" fill="white"/>
<path d="M14.3278 13.9526C14.3452 16.8491 15.0571 22.0395 19.6004 24.4609C19.9679 24.6579 19.6699 25.3125 19.2155 25.3067C16.1799 25.2632 10.3777 24.2987 11.7494 17.4776C11.9404 16.5275 12.4121 15.3081 13.3439 14.1814C13.4191 14.0916 13.4886 13.9932 13.5522 13.8947C13.7866 13.5297 14.3249 13.5326 14.3278 13.9526Z" fill="#493254"/>
</svg>
